<mxfile host="app.diagrams.net" modified="2021-11-25T10:19:57.443Z" agent="5.0 (X11)" etag="amt_xXJNrzl0Tpji9Y__" version="15.0.1" type="github">
  <diagram id="XQEstLa2-WwwkH6FFpHb" name="Page-1">
    <mxGraphModel dx="1260" dy="709" grid="1" gridSize="10" guides="1" tooltips="1" connect="1" arrows="1" fold="1" page="1" pageScale="1" pageWidth="827" pageHeight="1169" math="0" shadow="0">
      <root>
        <mxCell id="0" />
        <mxCell id="1" parent="0" />
        <mxCell id="w64wzA_e9NU8IU_Zn9Cp-1" value="nBill event" style="rounded=0;whiteSpace=wrap;html=1;" vertex="1" parent="1">
          <mxGeometry x="80" y="200" width="120" height="60" as="geometry" />
        </mxCell>
        <mxCell id="w64wzA_e9NU8IU_Zn9Cp-2" value="c1account.limeservice_action_queue" style="rounded=0;whiteSpace=wrap;html=1;" vertex="1" parent="1">
          <mxGeometry x="280" y="200" width="230" height="60" as="geometry" />
        </mxCell>
        <mxCell id="w64wzA_e9NU8IU_Zn9Cp-3" value="&lt;div&gt;nBill event folder&lt;/div&gt;&lt;div&gt;Every subfolder named after the event&lt;/div&gt;&lt;div&gt;Each file in event folder is executed at event&lt;/div&gt;&lt;div&gt;Example: income_created&lt;br&gt;&lt;br&gt;Bitbucket: account_limesurvey_org&lt;br&gt;&lt;/div&gt;" style="text;html=1;strokeColor=none;fillColor=none;align=left;verticalAlign=top;whiteSpace=wrap;rounded=0;" vertex="1" parent="1">
          <mxGeometry x="80" y="280" width="120" height="100" as="geometry" />
        </mxCell>
        <mxCell id="w64wzA_e9NU8IU_Zn9Cp-9" value="" style="edgeStyle=orthogonalEdgeStyle;rounded=0;orthogonalLoop=1;jettySize=auto;html=1;entryX=0;entryY=0.5;entryDx=0;entryDy=0;" edge="1" parent="1" source="w64wzA_e9NU8IU_Zn9Cp-5" target="w64wzA_e9NU8IU_Zn9Cp-7">
          <mxGeometry relative="1" as="geometry">
            <mxPoint x="500" y="350" as="targetPoint" />
          </mxGeometry>
        </mxCell>
        <mxCell id="w64wzA_e9NU8IU_Zn9Cp-10" value="Copy" style="edgeLabel;html=1;align=center;verticalAlign=middle;resizable=0;points=[];" vertex="1" connectable="0" parent="w64wzA_e9NU8IU_Zn9Cp-9">
          <mxGeometry x="-0.125" relative="1" as="geometry">
            <mxPoint as="offset" />
          </mxGeometry>
        </mxCell>
        <mxCell id="w64wzA_e9NU8IU_Zn9Cp-5" value="Master cronjob" style="rounded=0;whiteSpace=wrap;html=1;align=center;verticalAlign=middle;" vertex="1" parent="1">
          <mxGeometry x="280" y="320" width="120" height="60" as="geometry" />
        </mxCell>
        <mxCell id="w64wzA_e9NU8IU_Zn9Cp-6" value="&lt;div&gt;Run every 5s&lt;/div&gt;&lt;div&gt;Iterates new actions&lt;/div&gt;&lt;div&gt;Copies plan action info to remote machine&lt;br&gt;&lt;/div&gt;&lt;div&gt;&lt;br&gt;&lt;/div&gt;&lt;div&gt;Bitbucket:&lt;br&gt;limeservice_cronjobs&lt;br&gt;&lt;/div&gt;" style="text;html=1;strokeColor=none;fillColor=none;align=left;verticalAlign=top;whiteSpace=wrap;rounded=0;" vertex="1" parent="1">
          <mxGeometry x="280" y="400" width="130" height="100" as="geometry" />
        </mxCell>
        <mxCell id="w64wzA_e9NU8IU_Zn9Cp-7" value="Remote&lt;br&gt;limeservice_system.plan_actions" style="rounded=0;whiteSpace=wrap;html=1;align=center;verticalAlign=middle;" vertex="1" parent="1">
          <mxGeometry x="560" y="320" width="210" height="60" as="geometry" />
        </mxCell>
        <mxCell id="w64wzA_e9NU8IU_Zn9Cp-12" value="Take action" style="edgeStyle=orthogonalEdgeStyle;rounded=0;orthogonalLoop=1;jettySize=auto;html=1;" edge="1" parent="1" source="w64wzA_e9NU8IU_Zn9Cp-11" target="w64wzA_e9NU8IU_Zn9Cp-7">
          <mxGeometry relative="1" as="geometry" />
        </mxCell>
        <mxCell id="w64wzA_e9NU8IU_Zn9Cp-11" value="Host cronjob" style="rounded=0;whiteSpace=wrap;html=1;align=center;verticalAlign=middle;" vertex="1" parent="1">
          <mxGeometry x="605" y="440" width="120" height="60" as="geometry" />
        </mxCell>
        <mxCell id="w64wzA_e9NU8IU_Zn9Cp-14" value="&lt;div&gt;Run every 5s&lt;/div&gt;&lt;div&gt;Iterates new actions&lt;br&gt;&lt;/div&gt;&lt;br&gt;Bitbucket:&lt;br&gt;limeservice_slave/engine" style="text;html=1;strokeColor=none;fillColor=none;align=left;verticalAlign=top;whiteSpace=wrap;rounded=0;" vertex="1" parent="1">
          <mxGeometry x="605" y="520" width="155" height="130" as="geometry" />
        </mxCell>
      </root>
    </mxGraphModel>
  </diagram>
</mxfile>
